<svg width="23" height="23" viewBox="0 0 23 23" fill="none" xmlns="http://www.w3.org/2000/svg">
<mask id="mask0_2721_540" style="mask-type:luminance" maskUnits="userSpaceOnUse" x="0" y="0" width="23" height="23">
<path d="M22.9146 0H0V22.7273H22.9146V0Z" fill="white"/>
</mask>
<g mask="url(#mask0_2721_540)">
<path d="M22.4599 11.6213C22.4599 10.8155 22.3871 10.0407 22.2516 9.29688H11.4609V13.6926H17.627C17.3614 15.113 16.5543 16.3165 15.3408 17.1223V19.9736H19.0436C21.2101 17.9953 22.4599 15.082 22.4599 11.6213Z" fill="#4285F4"/>
<path d="M11.4574 22.728C14.5509 22.728 17.1444 21.7104 19.0401 19.9749L15.3373 17.1237C14.3113 17.8055 12.9989 18.2083 11.4574 18.2083C8.47327 18.2083 5.94752 16.2093 5.04651 13.5234H1.21875V16.4676C3.10405 20.1815 6.97867 22.728 11.4574 22.728Z" fill="#34A853"/>
<path d="M5.04636 13.5202C4.81722 12.8384 4.68706 12.1101 4.68706 11.3611C4.68706 10.6121 4.81722 9.88384 5.04636 9.20202V6.25781H1.2186C0.44271 7.7919 0 9.52747 0 11.3611C0 13.1947 0.44271 14.9303 1.2186 16.4644L5.04636 13.5202Z" fill="#FBBC04"/>
<path d="M11.4574 4.51966C13.1396 4.51966 14.6498 5.09295 15.8372 6.21898L19.1234 2.95966C17.1392 1.12602 14.5456 0 11.4574 0C6.97867 0 3.10405 2.54648 1.21875 6.26034L5.04652 9.20455C5.94752 6.51864 8.47328 4.51966 11.4574 4.51966Z" fill="#E94235"/>
</g>
</svg>
