<svg width="24" height="24" viewBox="0 0 24 24" fill="none" xmlns="http://www.w3.org/2000/svg">
<path d="M12.0504 1.81271C1.47 1.75703 -3.43584 12.9273 6.18624 17.8896C6.01704 18.4725 5.09976 21.6408 5.06304 21.8897C5.03688 22.0843 5.1852 22.2475 5.42568 22.164C5.7732 22.1153 9.45288 19.5305 10.0898 19.0817C25.3474 20.9078 28.3517 2.51351 12.0504 1.81271Z" fill="#3D1D1C"/>
<path d="M6.58826 12.9442C6.56762 13.7441 5.33641 13.7473 5.31457 12.9442V9.1611H4.32098C3.49802 9.14022 3.49634 7.93542 4.32098 7.91406H7.58185C8.40529 7.9359 8.40625 9.13926 7.58185 9.1611H6.58826V12.9442Z" fill="#FFE812"/>
<path d="M11.9368 13.4611C11.651 13.6119 11.098 13.5751 11.002 13.2677L10.6866 12.4421H8.74479L8.42919 13.2682C8.33367 13.5751 7.78047 13.6121 7.49487 13.4611C7.31919 13.3803 7.15047 13.1575 7.34391 12.5568L8.86719 8.54763C9.17895 7.72539 10.251 7.72179 10.5647 8.54835L12.0873 12.5559C12.281 13.1578 12.1122 13.3805 11.9368 13.4611Z" fill="#FFE812"/>
<path d="M15.1534 13.4601H13.1103C12.7738 13.4601 12.5 13.1983 12.5 12.8765V8.55143C12.5218 7.71335 13.7778 7.71071 13.8001 8.55143V12.2925H15.1534C15.9572 12.3125 15.9589 13.4397 15.1534 13.4601Z" fill="#FFE812"/>
<path d="M20.1427 12.9808C20.086 13.5268 19.3187 13.7279 19.0039 13.2762L17.5106 11.2974L17.2895 11.5185V12.9078C17.2687 13.7459 16.0377 13.749 16.0156 12.9081V8.55161C16.0377 7.71281 17.2667 7.71113 17.2893 8.55161V9.92032L19.066 8.1436C19.2791 7.92736 19.6497 7.97393 19.8575 8.18993C20.0738 8.39537 20.1206 8.77025 19.9043 8.98145L18.4531 10.4325L20.0205 12.5092C20.1225 12.6436 20.1664 12.8135 20.1427 12.9808Z" fill="#FFE812"/>
<path d="M9.07812 11.307H10.3501L9.71413 9.5L9.07812 11.307Z" fill="#3D1D1C"/>
</svg>
