<?xml version="1.0" standalone="no"?>
<!DOCTYPE svg PUBLIC "-//W3C//DTD SVG 20010904//EN"
 "http://www.w3.org/TR/2001/REC-SVG-20010904/DTD/svg10.dtd">
<svg version="1.0" xmlns="http://www.w3.org/2000/svg"
 width="200.000000pt" height="200.000000pt" viewBox="0 0 200.000000 200.000000"
 preserveAspectRatio="xMidYMid meet">

<g transform="translate(0.000000,200.000000) scale(0.100000,-0.100000)"
fill="#000000" stroke="none">
<path d="M832 1985 c-393 -71 -697 -350 -799 -733 -23 -85 -26 -117 -26 -252
0 -135 3 -167 26 -252 94 -352 363 -621 715 -715 85 -23 117 -26 252 -26 135
0 167 3 252 26 352 94 621 363 716 716 22 84 25 116 25 251 0 135 -3 167 -25
251 -77 284 -273 524 -533 649 -185 88 -409 120 -603 85z m370 -75 c279 -61
532 -266 648 -525 54 -121 72 -198 77 -345 9 -217 -35 -378 -146 -548 -127
-192 -313 -329 -535 -393 -109 -32 -322 -37 -443 -11 -340 76 -606 327 -705
667 -31 108 -36 322 -10 442 41 182 116 319 250 456 184 186 397 275 662 276
78 0 143 -6 202 -19z"/>
<path d="M1390 1521 c-5 -11 -10 -45 -10 -76 l0 -57 -28 7 c-37 8 -86 -10 -79
-29 3 -8 -1 -17 -9 -20 -9 -3 -136 -5 -282 -4 -147 0 -247 4 -222 8 39 6 41 7
12 8 -18 1 -44 9 -57 18 -14 9 -36 14 -50 12 -24 -5 -24 -3 -27 66 l-3 71 -31
3 c-20 2 -36 -4 -49 -18 -11 -12 -31 -20 -50 -20 -26 0 -40 -9 -69 -44 -20
-24 -36 -51 -36 -60 0 -9 -7 -16 -16 -16 -11 0 -15 6 -11 20 3 11 1 20 -4 20
-15 0 -22 -49 -9 -65 6 -7 21 -15 33 -17 13 -2 29 -19 41 -43 15 -28 29 -41
46 -43 14 -2 37 -15 52 -29 31 -30 73 -26 83 7 10 32 21 16 50 -69 18 -55 48
-111 96 -180 53 -77 69 -108 69 -135 0 -57 -21 -138 -46 -182 -33 -56 -30 -71
16 -116 l41 -38 -39 0 c-42 0 -79 -21 -68 -38 8 -13 79 -14 121 -2 17 4 43 11
58 14 23 5 27 11 22 27 -6 19 -3 20 47 14 72 -9 76 -11 80 -37 3 -20 10 -24
56 -28 63 -7 80 0 57 24 -9 9 -21 16 -27 16 -5 0 -8 5 -6 12 3 7 30 13 67 15
73 4 107 25 151 91 16 25 30 37 33 30 7 -19 20 59 14 82 -3 11 -1 20 4 20 5 0
4 10 -3 23 -7 12 -11 25 -10 30 1 4 -9 13 -23 19 -14 6 -25 15 -25 20 0 4 -8
8 -18 8 -10 0 -28 9 -39 20 -34 31 -72 28 -135 -13 -32 -20 -58 -35 -58 -33 0
21 42 89 99 162 39 49 88 125 110 169 37 73 78 134 84 124 2 -2 7 -17 13 -34
7 -24 16 -31 41 -33 25 -2 35 2 48 22 11 16 28 26 48 28 26 2 36 11 53 43 13
25 28 41 42 43 18 3 22 10 22 42 0 31 -4 40 -22 46 -13 4 -40 25 -60 47 -30
32 -42 38 -62 33 -18 -4 -31 -1 -46 14 -26 26 -66 26 -80 1z m59 -1 c44 -23
70 -163 32 -173 -14 -3 -19 -17 -23 -61 -3 -31 -10 -62 -16 -68 -7 -7 -8 2 0
33 13 56 3 187 -17 235 -8 20 -15 38 -15 40 0 7 21 4 39 -6z m-844 -27 c-31
-62 -39 -197 -18 -278 4 -14 2 -17 -6 -10 -6 6 -14 39 -17 73 -4 39 -11 62
-19 62 -21 0 -26 44 -11 95 17 54 41 85 67 85 16 0 16 -3 4 -27z m964 -29 c12
-15 21 -41 21 -61 0 -27 -5 -35 -26 -43 -39 -15 -41 -14 -46 43 -3 28 -9 60
-13 70 -12 29 40 22 64 -9z m-1055 -19 c-7 -19 -14 -48 -14 -65 0 -23 -4 -30
-19 -30 -25 0 -31 10 -33 54 -1 42 24 76 58 76 22 0 23 -1 8 -35z m1126 -47
c0 -19 -2 -20 -10 -8 -13 19 -13 30 0 30 6 0 10 -10 10 -22z m-1243 -54 c-3
-3 -12 -4 -19 -1 -8 3 -5 6 6 6 11 1 17 -2 13 -5z m896 -16 c-6 -9 0 -22 19
-40 18 -17 28 -22 28 -13 0 8 9 19 20 25 17 9 20 8 20 -8 0 -23 -29 -49 -53
-49 -20 0 -67 51 -67 71 0 17 10 26 28 26 10 0 11 -4 5 -12z m-556 -14 c3 -8
1 -20 -6 -27 -6 -6 -11 -16 -11 -21 1 -19 30 27 30 46 0 15 9 18 58 18 l58 0
-2 -77 c-1 -43 -6 -90 -12 -104 -10 -25 -51 -59 -71 -59 -13 0 -81 110 -81
132 0 11 -5 15 -15 12 -28 -11 -18 42 11 61 21 13 24 19 13 26 -11 7 -10 9 4
9 10 0 20 -7 24 -16z m363 11 c0 -2 -9 -19 -20 -37 -11 -18 -20 -41 -20 -50 0
-21 -1 -21 -37 -7 -15 6 -42 11 -59 11 -28 -1 -32 3 -43 37 -6 21 -11 41 -11
45 0 3 43 6 95 6 52 0 95 -2 95 -5z m150 -9 c0 -8 11 -27 24 -43 20 -24 22
-32 13 -50 -23 -41 -122 -152 -135 -150 -7 1 -21 14 -30 29 -15 25 -15 31 2
78 13 37 17 64 12 101 l-7 49 61 0 c45 0 60 -3 60 -14z m-604 -26 c9 0 14 -11
14 -32 l-1 -33 -19 24 c-11 13 -20 33 -19 45 0 11 3 15 6 9 2 -7 11 -13 19
-13z m929 -20 c-3 -5 -11 -10 -16 -10 -6 0 -7 5 -4 10 3 6 11 10 16 10 6 0 7
-4 4 -10z m-1100 -10 c3 -5 2 -10 -4 -10 -5 0 -13 5 -16 10 -3 6 -2 10 4 10 5
0 13 -4 16 -10z m78 -50 c-6 -6 -33 30 -33 43 0 5 9 -1 19 -14 11 -13 17 -26
14 -29z m941 27 c-3 -8 -12 -18 -20 -21 -10 -4 -13 -2 -8 7 21 37 41 47 28 14z
m-588 -82 c11 -16 14 -36 11 -54 -4 -19 -1 -33 7 -40 8 -7 12 -21 9 -31 -6
-24 21 -37 42 -20 21 18 19 30 -7 30 -20 0 -20 1 -5 18 10 10 17 26 17 35 0 8
12 30 26 47 35 41 68 38 72 -7 2 -18 7 -33 13 -33 14 0 49 -33 49 -47 0 -14
-61 -63 -78 -63 -22 0 -42 -45 -42 -96 0 -28 9 -86 20 -129 l20 -79 -21 -43
c-16 -33 -19 -53 -14 -83 7 -39 6 -40 -21 -40 -15 0 -47 9 -71 21 -34 16 -50
33 -70 72 -22 45 -25 58 -19 116 6 60 35 166 55 201 11 21 -5 60 -25 60 -21 0
-87 66 -82 82 3 7 16 19 31 26 15 7 30 27 37 47 14 42 24 44 46 10z m-120
-541 c-4 -9 0 -27 9 -40 12 -19 13 -22 1 -18 -8 3 -17 13 -20 21 -7 16 1 53
11 53 3 0 2 -7 -1 -16z"/>
<path d="M867 1140 c-7 -27 18 -59 34 -43 10 10 10 18 1 38 -14 30 -28 32 -35
5z"/>
<path d="M1033 1138 c1 -7 -5 -12 -13 -13 -27 0 -17 -30 10 -30 20 0 26 6 28
28 2 19 -1 27 -12 27 -9 0 -15 -5 -13 -12z"/>
<path d="M890 1066 c0 -8 4 -17 9 -20 5 -4 7 3 4 14 -6 23 -13 26 -13 6z"/>
<path d="M1011 1064 c0 -11 3 -14 6 -6 3 7 2 16 -1 19 -3 4 -6 -2 -5 -13z"/>
<path d="M878 1363 c7 -3 16 -2 19 1 4 3 -2 6 -13 5 -11 0 -14 -3 -6 -6z"/>
<path d="M1223 1363 c9 -2 23 -2 30 0 6 3 -1 5 -18 5 -16 0 -22 -2 -12 -5z"/>
</g>
</svg>
